<svg version="1.1" id="Vrstva_1" xmlns="http://www.w3.org/2000/svg" xmlns:xlink="http://www.w3.org/1999/xlink" x="0px" y="0px" width="119.8px" height="31.6px" viewBox="0 0 119.8 31.6" style="enable-background:new 0 0 119.8 31.6;" xml:space="preserve">
<style type="text/css">
	.st0{fill-rule:evenodd;clip-rule:evenodd;fill:#9900CC;}
	.st1{fill-rule:evenodd;clip-rule:evenodd;fill:#00CCFF;}
	.st2{fill:url(#SVGID_1_);}
	.st3{fill:#666666;}
</style>
    <path class="st0" d="M3.7,4.8c2,0,3.7,1.6,3.7,3.7c0,2-1.6,3.7-3.7,3.7c-2,0-3.7-1.6-3.7-3.7C0,6.4,1.6,4.8,3.7,4.8"/>
    <path class="st1" d="M115.8,0.4c2,0,3.7,1.6,3.7,3.7c0,2-1.6,3.7-3.7,3.7c-2,0-3.7-1.6-3.7-3.7C112.1,2,113.8,0.4,115.8,0.4"/>
    <linearGradient id="SVGID_1_" gradientUnits="userSpaceOnUse" x1="35.8146" y1="15.8531" x2="5.4807" y2="15.8531">
	<stop offset="0" style="stop-color:#00CCFF"/>
        <stop offset="1" style="stop-color:#9900CC"/>
</linearGradient>
    <path class="st2" d="M15.7,17.6c-1.5-0.6-2.9-1.5-4-2.7c-1.1-1.2-1.7-2.9-1.7-5c0-0.4,0.2-2,0.5-2.8c0.3,2.2,2.2,2.4,4,2.9  c4.7,1.2,11.4,2.6,15.7,4.2c1.5,0.6,2.8,1.5,4,2.7c1.1,1.2,1.7,2.9,1.7,5c0,0.4-0.1,1.4-0.6,2.9c-0.6-1.3-2.7-2.6-4.7-3.1  C25.8,20.3,20.1,19.2,15.7,17.6"/>
    <path class="st3" d="M50,25.4c1.3,0,2.4-0.5,3.3-1.4c0.9-0.9,1.3-2.2,1.3-3.9c0-1.6-0.4-2.9-1.3-3.8c-0.9-0.9-2-1.4-3.3-1.4  c-1.3,0-2.4,0.5-3.3,1.4c-0.9,0.9-1.3,2.2-1.3,3.8c0,1.6,0.4,2.9,1.3,3.9C47.6,24.9,48.7,25.4,50,25.4 M50,31.5  c-2.3,0-4.5-0.5-6.3-1.5c-1.9-1-3.4-2.3-4.4-4c-1.1-1.7-1.6-3.7-1.6-5.8c0-2.2,0.5-4.1,1.6-5.8c1.1-1.7,2.5-3.1,4.4-4  c1.9-1,4-1.4,6.4-1.4c2.4,0,4.5,0.5,6.4,1.4c1.9,1,3.3,2.3,4.4,4c1,1.7,1.6,3.7,1.6,5.8c0,2.2-0.5,4.1-1.6,5.8c-1,1.7-2.5,3.1-4.4,4  C54.5,31,52.4,31.5,50,31.5z M73.8,10.1H79v5.7h-5v15.3h-7.7V15.8h-3.2v-5.7h3.2V9.5c0-2.7,0.8-4.8,2.4-6.3c1.6-1.6,3.8-2.3,6.7-2.3  c1,0,2.2,0.3,3,0.7v5.7c-0.7-0.4-1.4-0.6-2.1-0.6c-0.8,0-1.4,0.2-1.9,0.7c-0.4,0.5-0.7,1.2-0.7,2.1V10.1z M94.4,30.5  c-0.8,0.6-2.3,1-3.4,1c-2.9,0-5-0.7-6.6-2.1c-1.5-1.4-2.3-3.5-2.3-6.3v-7.3h-3.2v-5.7h3.2V0.9h7.7v9.2h5v5.7h-5v7.3  c0,0.8,0.2,1.4,0.6,1.8c0.4,0.4,1,0.7,1.7,0.7c0.9,0,1.7-0.2,2.3-0.7l0,0V30.5z M97.1,0.8h8v24h5.3v6.3H97.1V0.8z M112.1,9.3h7.7  v21.9h-7.7V9.3z M12.8,3.4c0.9-0.8,2-1.5,3.3-2.1c2-0.9,4.5-1.3,7.4-1.3c2,0,4,0.2,5.9,0.7c1.9,0.4,3.6,1.1,5.1,2L31.9,9  c-1.7-0.9-3.3-1.6-5-1.9L12.8,3.4z M22.3,31.6c-2.5,0-4.9-0.3-7.2-0.9c-2.3-0.6-4.2-1.4-5.6-2.4l2.8-6.3c1.3,0.9,2.8,1.6,4.6,2.1  l16,4.2c-0.9,0.8-1.9,1.4-3.2,2C27.7,31.2,25.2,31.6,22.3,31.6"/>
</svg>