<?xml version="1.0" encoding="UTF-8" standalone="no"?>
<!-- Created with Inkscape (http://www.inkscape.org/) -->

<svg
   version="1.1"
   id="svg46"
   width="225"
   height="225"
   viewBox="0 0 225 225"
   sodipodi:docname="zahrady green.png"
   xmlns:inkscape="http://www.inkscape.org/namespaces/inkscape"
   xmlns:sodipodi="http://sodipodi.sourceforge.net/DTD/sodipodi-0.dtd"
   xmlns="http://www.w3.org/2000/svg"
   xmlns:svg="http://www.w3.org/2000/svg">
  <defs
     id="defs50" />
  <sodipodi:namedview
     id="namedview48"
     pagecolor="#ffffff"
     bordercolor="#000000"
     borderopacity="0.25"
     inkscape:showpageshadow="2"
     inkscape:pageopacity="0.0"
     inkscape:pagecheckerboard="0"
     inkscape:deskcolor="#d1d1d1"
     showgrid="false" />
  <g
     inkscape:groupmode="layer"
     inkscape:label="Image"
     id="g52">
    <path
       style="fill:#3aa647;stroke:none"
       d="m 106,160 c 0,17.303 -1.909,35.818 0,53 0.654,5.89 9.252,8.774 12.5,3 1.056,-1.878 0.5,-4.931 0.5,-7 v -15 -41 c 0,-6.093 -0.919,-12.987 0,-19 0.469,-3.073 2.906,-4.906 5,-7 4.33,-4.33 8.763,-8.579 13,-13 2.888,-3.014 5.643,-6.948 2.667,-11 -6.563,-8.9363 -15.445,4.977 -20.667,8 V 80 c 0,-3.6736 1.17,-9.7973 -1.333,-12.8333 -3.155,-3.826 -9.095,-2.2533 -11.167,1.8333 -1.116,2.2016 -0.5,5.6041 -0.5,8 V 94 C 102.072,90.0721 97.3618,83.1951 92,81.3333 86.4756,79.4151 81.4739,84.46 83.1667,90 c 0.8728,2.8565 3.7882,4.9549 5.8333,7 4.9418,4.942 13.369,10.738 16.5,17 1.33,2.66 0.5,7.093 0.5,10 v 22 c -7.5375,0 -16.6619,1.399 -24,-0.333 C 71.2767,143.135 63.9447,132.672 63.5,122 63.2132,115.117 69.9546,108.589 67.6667,102 66.2566,97.9391 61.6046,95.634 59.3333,92 55.3408,85.612 54.9007,76.7186 58.1667,70 61.8735,62.3744 68.8282,57.2628 77,55.3333 c 3.3459,-0.79 7.3417,0.7065 9.8333,-2.3333 2.3173,-2.827 0.7958,-7.6199 1.5,-11 1.9331,-9.2789 9.5851,-19.0198 19.6667,-20 10.433,-1.0143 19.513,3.7235 24.667,13 1.714,3.0851 1.388,7.4583 4.333,9.8333 2.78,2.2418 8.541,1.5873 12,2.5 5.158,1.3611 9.799,5.2736 12.667,9.6667 4.043,6.194 4.762,14.3937 1,21 -1.919,3.3692 -5.274,5.9595 -5.667,10 -0.488,5.0231 3.812,8.6923 5.667,13 4.022,9.341 2.939,20.188 -1.834,29 -2.78,5.132 -6.956,9.483 -11.833,12.667 -3.17,2.069 -8.608,2.76 -10.5,6.333 -3.182,6.011 2.874,10.995 8.5,9.667 20.039,-4.732 33.93,-28.816 32,-48.667 -0.454,-4.669 -1.572,-9.628 -3.333,-14 -0.849,-2.1063 -3.03,-4.6437 -2.834,-7 0.302,-3.6146 3.916,-7.3283 4.834,-11 3.619,-14.4764 -1.411,-29.8149 -13.667,-38.6667 -3.017,-2.1788 -6.363,-4.0907 -10,-5 -2.521,-0.6302 -5.754,-0.3884 -7.667,-2.5 C 144.239,29.5209 143.655,25.6026 141.667,23 134.612,13.7653 121.897,6.84334 110,8 97.423,9.22276 85.3447,15.5944 79.1667,27 77.093,30.8284 76.9083,38.8329 73.8333,41.6667 71.566,43.7562 66.8168,43.8365 64,45.1667 56.3191,48.7938 49.7938,55.319 46.1667,63 c -4.908,10.3932 -5.1969,23.6063 0,34 1.5769,3.154 5.7762,6.486 6.1666,10 0.3461,3.115 -2.0266,6.845 -2.3333,10 -0.5122,5.268 0.0577,10.898 1.3333,16 3.5144,14.057 17.3284,25.606 31.6667,27 7.5053,0.73 15.4538,0 23,0 z"
       id="path216" />
  </g>
</svg>
